<svg class="diagram-root" style="background: #f5f6f6" xmlns="http://www.w3.org/2000/svg" xmlns:xlink="http://www.w3.org/1999/xlink"><style>.diagram-root { font-family: "Helvetica Neue", sans-serif; font-size: 12px; } .t { overflow: visible; } .t-bg { y: 40; fill: #fff;   } .th { fill: #005aa0;   } .tht { fill: #fff; font-size: 14px;  } .tf { fill: #323c46; overflow: visible; } .tf.pk { fill: #005aa0; font-weight: bold; } .tf.fk { font-weight: bold; } .ty { fill: #adb1b5; font-weight: normal; text-anchor: end; } .r { fill: transparent; stroke: #c3c3c3; stroke-width: 1; } .l { stroke: 1; } .i { fill: #c2c7ce; stroke: #c2c7ce; } .i.ix { fill: #afb3b6; stroke: #000; } .fa { fill: transparent; overflow: visible; } .fa .bg.hover { fill: #f7f7f7; } .c { cy: 12; r: 4; stroke: #d2d2dc; fill: #d2d2dc; } .hr { fill: transparent; stroke: #323c46; stroke-opacity: 0.035; stroke-width: 13; } .dc { stroke: #fa5a3c; fill: #fa5a3c; } .x { stroke: white; stroke-width: 1; } .hl .th { fill: #1b9bff; } .hl .tht {  } .fhl .bg { fill: #e7f4ff; } .fhls .bg {  } .r.hl { stroke: #1b9bff; } .dim { opacity: 0.25; }</style><g class="drawing-wrapper" transform="translate(30.389999999999986, 169.29) scale(1,1)"><g class="rs"><path d="M 430.89 442.54 m -1, 0 a 1,1 0 1,0 2,0 a 1,1 0 1,0 -2,0 M 430.89 442.54 m -0.5, 0 a 0.5,0.5 0 1,0 1,0 a 0.5,0.5 0 1,0 -1,0  M430.89 442.54 L430.89 442.54 418.89 442.54 M 430.89 448.54 m -1, 0 a 1,1 0 1,0 2,0 a 1,1 0 1,0 -2,0 M 430.89 448.54 m -0.5, 0 a 0.5,0.5 0 1,0 1,0 a 0.5,0.5 0 1,0 -1,0  M430.89 448.54 L430.89 448.54 423.89 442.54 430.89 436.54 M 430.89 436.54 m -1, 0 a 1,1 0 1,0 2,0 a 1,1 0 1,0 -2,0 M 430.89 436.54 m -0.5, 0 a 0.5,0.5 0 1,0 1,0 a 0.5,0.5 0 1,0 -1,0  M418.89 442.54 Q 357.2 442.54, 295.5 294.86 T 172.11 147.18 M 160.11 147.18 m -1, 0 a 1,1 0 1,0 2,0 a 1,1 0 1,0 -2,0 M 160.11 147.18 m -0.5, 0 a 0.5,0.5 0 1,0 1,0 a 0.5,0.5 0 1,0 -1,0  M160.11 147.18 L160.11 147.18 172.11 147.18 M 160.11 153.18 m -1, 0 a 1,1 0 1,0 2,0 a 1,1 0 1,0 -2,0 M 160.11 153.18 m -0.5, 0 a 0.5,0.5 0 1,0 1,0 a 0.5,0.5 0 1,0 -1,0  M160.11 153.18 L160.11 153.18 167.11 147.18 160.11 141.18 M 160.11 141.18 m -1, 0 a 1,1 0 1,0 2,0 a 1,1 0 1,0 -2,0 M 160.11 141.18 m -0.5, 0 a 0.5,0.5 0 1,0 1,0 a 0.5,0.5 0 1,0 -1,0 " id="h1139284389" class="r"></path><path d="M 598.06 467.54 m -1, 0 a 1,1 0 1,0 2,0 a 1,1 0 1,0 -2,0 M 598.06 467.54 m -0.5, 0 a 0.5,0.5 0 1,0 1,0 a 0.5,0.5 0 1,0 -1,0  M598.06 467.54 L598.06 467.54 610.06 467.54 M 598.06 473.54 m -1, 0 a 1,1 0 1,0 2,0 a 1,1 0 1,0 -2,0 M 598.06 473.54 m -0.5, 0 a 0.5,0.5 0 1,0 1,0 a 0.5,0.5 0 1,0 -1,0  M598.06 473.54 L598.06 473.54 605.06 467.54 598.06 461.54 M 598.06 461.54 m -1, 0 a 1,1 0 1,0 2,0 a 1,1 0 1,0 -2,0 M 598.06 461.54 m -0.5, 0 a 0.5,0.5 0 1,0 1,0 a 0.5,0.5 0 1,0 -1,0  M610.06 467.54 Q 651.15 467.54, 692.24 371.47 T 774.42 275.4 M 786.42 275.4 m -1, 0 a 1,1 0 1,0 2,0 a 1,1 0 1,0 -2,0 M 786.42 275.4 m -0.5, 0 a 0.5,0.5 0 1,0 1,0 a 0.5,0.5 0 1,0 -1,0  M786.42 275.4 L786.42 275.4 774.42 275.4 M780.42 281.4 L780.42 281.4 780.42 269.4" id="h1607168654" class="r"></path><path d="M 612.53 287.01 m -1, 0 a 1,1 0 1,0 2,0 a 1,1 0 1,0 -2,0 M 612.53 287.01 m -0.5, 0 a 0.5,0.5 0 1,0 1,0 a 0.5,0.5 0 1,0 -1,0  M612.53 287.01 L612.53 287.01 624.53 287.01 M 612.53 293.01 m -1, 0 a 1,1 0 1,0 2,0 a 1,1 0 1,0 -2,0 M 612.53 293.01 m -0.5, 0 a 0.5,0.5 0 1,0 1,0 a 0.5,0.5 0 1,0 -1,0  M612.53 293.01 L612.53 293.01 619.53 287.01 612.53 281.01 M 612.53 281.01 m -1, 0 a 1,1 0 1,0 2,0 a 1,1 0 1,0 -2,0 M 612.53 281.01 m -0.5, 0 a 0.5,0.5 0 1,0 1,0 a 0.5,0.5 0 1,0 -1,0  M624.53 287.01 Q 662 287.01, 699.47 281.21 T 774.42 275.4 M 786.42 275.4 m -1, 0 a 1,1 0 1,0 2,0 a 1,1 0 1,0 -2,0 M 786.42 275.4 m -0.5, 0 a 0.5,0.5 0 1,0 1,0 a 0.5,0.5 0 1,0 -1,0  M786.42 275.4 L786.42 275.4 774.42 275.4 M780.42 281.4 L780.42 281.4 780.42 269.4" id="h1397587031" class="r"></path><path d="M 445.36 312.01 m -1, 0 a 1,1 0 1,0 2,0 a 1,1 0 1,0 -2,0 M 445.36 312.01 m -0.5, 0 a 0.5,0.5 0 1,0 1,0 a 0.5,0.5 0 1,0 -1,0  M445.36 312.01 L445.36 312.01 433.36 312.01 M 445.36 318.01 m -1, 0 a 1,1 0 1,0 2,0 a 1,1 0 1,0 -2,0 M 445.36 318.01 m -0.5, 0 a 0.5,0.5 0 1,0 1,0 a 0.5,0.5 0 1,0 -1,0  M445.36 318.01 L445.36 318.01 438.36 312.01 445.36 306.01 M 445.36 306.01 m -1, 0 a 1,1 0 1,0 2,0 a 1,1 0 1,0 -2,0 M 445.36 306.01 m -0.5, 0 a 0.5,0.5 0 1,0 1,0 a 0.5,0.5 0 1,0 -1,0  M433.36 312.01 Q 368.05 312.01, 302.74 229.6 T 172.11 147.18 M 160.11 147.18 m -1, 0 a 1,1 0 1,0 2,0 a 1,1 0 1,0 -2,0 M 160.11 147.18 m -0.5, 0 a 0.5,0.5 0 1,0 1,0 a 0.5,0.5 0 1,0 -1,0  M160.11 147.18 L160.11 147.18 172.11 147.18 M 160.11 153.18 m -1, 0 a 1,1 0 1,0 2,0 a 1,1 0 1,0 -2,0 M 160.11 153.18 m -0.5, 0 a 0.5,0.5 0 1,0 1,0 a 0.5,0.5 0 1,0 -1,0  M160.11 153.18 L160.11 153.18 167.11 147.18 160.11 141.18 M 160.11 141.18 m -1, 0 a 1,1 0 1,0 2,0 a 1,1 0 1,0 -2,0 M 160.11 141.18 m -0.5, 0 a 0.5,0.5 0 1,0 1,0 a 0.5,0.5 0 1,0 -1,0 " id="h2286254435" class="r"></path><path d="M 160.11 172.18 m -1, 0 a 1,1 0 1,0 2,0 a 1,1 0 1,0 -2,0 M 160.11 172.18 m -0.5, 0 a 0.5,0.5 0 1,0 1,0 a 0.5,0.5 0 1,0 -1,0  M160.11 172.18 L160.11 172.18 172.11 172.18 M 160.11 178.18 m -1, 0 a 1,1 0 1,0 2,0 a 1,1 0 1,0 -2,0 M 160.11 178.18 m -0.5, 0 a 0.5,0.5 0 1,0 1,0 a 0.5,0.5 0 1,0 -1,0  M160.11 178.18 L160.11 178.18 167.11 172.18 160.11 166.18 M 160.11 166.18 m -1, 0 a 1,1 0 1,0 2,0 a 1,1 0 1,0 -2,0 M 160.11 166.18 m -0.5, 0 a 0.5,0.5 0 1,0 1,0 a 0.5,0.5 0 1,0 -1,0  M172.11 172.18 Q 231.35 172.18, 290.59 119.59 T 409.07 67 M 421.07 67 m -1, 0 a 1,1 0 1,0 2,0 a 1,1 0 1,0 -2,0 M 421.07 67 m -0.5, 0 a 0.5,0.5 0 1,0 1,0 a 0.5,0.5 0 1,0 -1,0  M421.07 67 L421.07 67 409.07 67 M415.07 73 L415.07 73 415.07 61" id="h1537058300" class="r"></path><path d="M 436.25 -82.28999999999999 m -1, 0 a 1,1 0 1,0 2,0 a 1,1 0 1,0 -2,0 M 436.25 -82.28999999999999 m -0.5, 0 a 0.5,0.5 0 1,0 1,0 a 0.5,0.5 0 1,0 -1,0  M436.25 -82.28999999999999 L436.25 -82.28999999999999 424.25 -82.28999999999999 M430.25 -76.28999999999999 L430.25 -76.28999999999999 430.25 -88.28999999999999 M424.25 -82.28999999999999 Q 361.22 -82.28999999999999, 298.18 32.45 T 172.11 147.18 M 160.11 147.18 m -1, 0 a 1,1 0 1,0 2,0 a 1,1 0 1,0 -2,0 M 160.11 147.18 m -0.5, 0 a 0.5,0.5 0 1,0 1,0 a 0.5,0.5 0 1,0 -1,0  M160.11 147.18 L160.11 147.18 172.11 147.18 M166.11 153.18 L166.11 153.18 166.11 141.18" id="h3177548053" class="r"></path></g><g class="hrs"></g><g class="ts"><svg width="167.17" height="100" x="786.42" y="218.4" id="h475896179" class="t"><rect height="40" width="167.17" class="th"></rect><text x="13" y="25" class="tht">departments</text><rect height="60" width="167.17" class="t-bg" y="40"></rect><text x="13" y="61" class="tf pk">dept_no<tspan x="154.17" class="ty">VARCHAR</tspan></text><path d="M7,14A2,2 0 0,1 5,12A2,2 0 0,1 7,10A2,2 0 0,1 9,12A2,2 0 0,1 7,14M12.65,10C11.83,7.67 9.61,6 7, 6A6, 6 0 0, 0 1, 12A6, 6 0 0, 0 7, 18C9.61, 18 11.83, 16.33 12.65, 14H17V18H21V14H23V10H12.65Z" class="i pk" transform="translate(76.37898437499999, 48) scale(0.65)"></path><text x="13" y="86" class="tf">dept_name<tspan x="154.17" class="ty">VARCHAR</tspan></text></svg><svg width="167.17" height="100" x="430.89" y="385.54" id="h1090417462" class="t"><rect height="40" width="167.17" class="th"></rect><text x="13" y="25" class="tht">dept_emp</text><rect height="60" width="167.17" class="t-bg" y="40"></rect><text x="13" y="61" class="tf pk">emp_no<tspan x="154.17" class="ty">INT</tspan></text><path d="M7,14A2,2 0 0,1 5,12A2,2 0 0,1 7,10A2,2 0 0,1 9,12A2,2 0 0,1 7,14M12.65,10C11.83,7.67 9.61,6 7, 6A6, 6 0 0, 0 1, 12A6, 6 0 0, 0 7, 18C9.61, 18 11.83, 16.33 12.65, 14H17V18H21V14H23V10H12.65Z" class="i pk" transform="translate(114.83992187499999, 48) scale(0.65)"></path><text x="13" y="86" class="tf pk">dept_no<tspan x="154.17" class="ty">VARCHAR</tspan></text><path d="M7,14A2,2 0 0,1 5,12A2,2 0 0,1 7,10A2,2 0 0,1 9,12A2,2 0 0,1 7,14M12.65,10C11.83,7.67 9.61,6 7, 6A6, 6 0 0, 0 1, 12A6, 6 0 0, 0 7, 18C9.61, 18 11.83, 16.33 12.65, 14H17V18H21V14H23V10H12.65Z" class="i pk" transform="translate(76.37898437499999, 73) scale(0.65)"></path></svg><svg width="167.17" height="100" x="445.36" y="230.01" id="h1676682957" class="t"><rect height="40" width="167.17" class="th"></rect><text x="13" y="25" class="tht">dept_manager</text><rect height="60" width="167.17" class="t-bg" y="40"></rect><text x="13" y="61" class="tf pk">dept_no<tspan x="154.17" class="ty">VARCHAR</tspan></text><path d="M7,14A2,2 0 0,1 5,12A2,2 0 0,1 7,10A2,2 0 0,1 9,12A2,2 0 0,1 7,14M12.65,10C11.83,7.67 9.61,6 7, 6A6, 6 0 0, 0 1, 12A6, 6 0 0, 0 7, 18C9.61, 18 11.83, 16.33 12.65, 14H17V18H21V14H23V10H12.65Z" class="i pk" transform="translate(76.37898437499999, 48) scale(0.65)"></path><text x="13" y="86" class="tf pk">emp_no<tspan x="154.17" class="ty">INT</tspan></text><path d="M7,14A2,2 0 0,1 5,12A2,2 0 0,1 7,10A2,2 0 0,1 9,12A2,2 0 0,1 7,14M12.65,10C11.83,7.67 9.61,6 7, 6A6, 6 0 0, 0 1, 12A6, 6 0 0, 0 7, 18C9.61, 18 11.83, 16.33 12.65, 14H17V18H21V14H23V10H12.65Z" class="i pk" transform="translate(114.83992187499999, 73) scale(0.65)"></path></svg><svg width="168.5" height="225" x="-8.39" y="90.18" id="h1639608377" class="t"><rect height="40" width="168.5" class="th"></rect><text x="13" y="25" class="tht">employees</text><rect height="185" width="168.5" class="t-bg" y="40"></rect><text x="13" y="61" class="tf pk">emp_no<tspan x="155.5" class="ty">INT</tspan></text><path d="M7,14A2,2 0 0,1 5,12A2,2 0 0,1 7,10A2,2 0 0,1 9,12A2,2 0 0,1 7,14M12.65,10C11.83,7.67 9.61,6 7, 6A6, 6 0 0, 0 1, 12A6, 6 0 0, 0 7, 18C9.61, 18 11.83, 16.33 12.65, 14H17V18H21V14H23V10H12.65Z" class="i pk" transform="translate(116.169921875, 48) scale(0.65)"></path><text x="13" y="86" class="tf fk">emp_title_id<tspan x="155.5" class="ty">VARCHAR</tspan></text><text x="13" y="111" class="tf">birth_date<tspan x="155.5" class="ty">date</tspan></text><text x="13" y="136" class="tf">first_name<tspan x="155.5" class="ty">VARCHAR</tspan></text><text x="13" y="161" class="tf">last_name<tspan x="155.5" class="ty">VARCHAR</tspan></text><text x="13" y="186" class="tf">sex<tspan x="155.5" class="ty">VARCHAR</tspan></text><text x="13" y="211" class="tf">hire_date<tspan x="155.5" class="ty">date</tspan></text></svg><svg width="128.7" height="100" x="436.25" y="-139.29" id="h2472833127" class="t"><rect height="40" width="128.7" class="th"></rect><text x="13" y="25" class="tht">salaries</text><rect height="60" width="128.7" class="t-bg" y="40"></rect><text x="13" y="61" class="tf pk">emp_no<tspan x="115.69999999999999" class="ty">INT</tspan></text><path d="M7,14A2,2 0 0,1 5,12A2,2 0 0,1 7,10A2,2 0 0,1 9,12A2,2 0 0,1 7,14M12.65,10C11.83,7.67 9.61,6 7, 6A6, 6 0 0, 0 1, 12A6, 6 0 0, 0 7, 18C9.61, 18 11.83, 16.33 12.65, 14H17V18H21V14H23V10H12.65Z" class="i pk" transform="translate(76.36992187499999, 48) scale(0.65)"></path><text x="13" y="86" class="tf">salary<tspan x="115.69999999999999" class="ty">INT</tspan></text></svg><svg width="122.46" height="100" x="421.07" y="10" id="h311790747" class="t"><rect height="40" width="122.46" class="th"></rect><text x="13" y="25" class="tht">titles</text><rect height="60" width="122.46" class="t-bg" y="40"></rect><text x="13" y="61" class="tf pk">title_id<tspan x="109.46" class="ty">int</tspan></text><path d="M7,14A2,2 0 0,1 5,12A2,2 0 0,1 7,10A2,2 0 0,1 9,12A2,2 0 0,1 7,14M12.65,10C11.83,7.67 9.61,6 7, 6A6, 6 0 0, 0 1, 12A6, 6 0 0, 0 7, 18C9.61, 18 11.83, 16.33 12.65, 14H17V18H21V14H23V10H12.65Z" class="i pk" transform="translate(76.786171875, 48) scale(0.65)"></path><text x="13" y="86" class="tf">title<tspan x="109.46" class="ty">VARCHAR</tspan></text></svg></g></g><text class="qdbd-link" x="10" y="20">www.quickdatabasediagrams.com</text></svg>